<?xml version="1.0" encoding="UTF-8"?>
<svg xmlns="http://www.w3.org/2000/svg" xmlns:xlink="http://www.w3.org/1999/xlink" width="204px" height="204px" viewBox="0 0 204 233" version="1.1">
<g id="surface1">
<path style=" stroke:none;fill-rule:nonzero;fill:rgb(10.588235%,45.098039%,72.941176%);fill-opacity:1;" d="M 17.082031 208.589844 L 0 0.390625 L 204 0.808594 L 185.9375 208.589844 L 102.769531 232.609375 Z M 17.082031 208.589844 "/>
<path style=" stroke:none;fill-rule:nonzero;fill:rgb(10.980392%,53.333333%,78.039216%);fill-opacity:1;" d="M 102.769531 212.5 L 102.769531 20.21875 L 186.777344 20.5 L 171.796875 192.535156 Z M 102.769531 212.5 "/>
<path style=" stroke:none;fill-rule:nonzero;fill:rgb(100%,100%,100%);fill-opacity:1;" d="M 165.917969 44.796875 L 36.683594 44.796875 L 40.183594 69.929688 L 101.507812 69.929688 L 41.164062 95.765625 L 44.664062 120.058594 L 133.574219 120.058594 L 130.351562 153.992188 L 100.25 159.855469 L 72.949219 152.875 L 70.847656 133.605469 L 45.785156 133.605469 L 49.144531 173.683594 L 102.910156 188.625 L 154.4375 172.285156 L 161.015625 93.949219 L 106.550781 93.949219 L 165.914062 69.371094 Z M 165.917969 44.796875 "/>
</g>
</svg>
