<?xml version="1.0" encoding="UTF-8"?>
<svg xmlns="http://www.w3.org/2000/svg" xmlns:xlink="http://www.w3.org/1999/xlink" width="204px" height="204px" viewBox="0 0 204 204" version="1.1">
<g id="surface1">
<path style=" stroke:none;fill-rule:nonzero;fill:rgb(33.72549%,23.921569%,48.627451%);fill-opacity:1;" d="M 0 177.695312 C 0 192.222656 11.777344 204 26.304688 204 L 177.695312 204 C 192.222656 204 204 192.222656 204 177.695312 L 204 26.304688 C 204 11.777344 192.222656 0 177.695312 0 L 26.304688 0 C 11.777344 0 0 11.777344 0 26.304688 Z M 0 177.695312 "/>
<path style=" stroke:none;fill-rule:nonzero;fill:rgb(100%,100%,100%);fill-opacity:1;" d="M 84.59375 90.238281 L 84.59375 61.347656 L 110.023438 61.347656 C 112.445312 61.347656 114.78125 61.550781 117.03125 61.953125 C 119.277344 62.355469 121.269531 63.078125 123 64.113281 C 124.726562 65.152344 126.113281 66.59375 127.148438 68.441406 C 128.1875 70.285156 128.707031 72.648438 128.707031 75.53125 C 128.707031 80.722656 127.148438 84.46875 124.035156 86.777344 C 120.921875 89.082031 116.945312 90.238281 112.097656 90.238281 Z M 57.433594 40.242188 L 57.433594 163.757812 L 117.289062 163.757812 C 122.824219 163.757812 128.21875 163.066406 133.464844 161.683594 C 138.710938 160.296875 143.382812 158.164062 147.476562 155.28125 C 151.570312 152.398438 154.828125 148.679688 157.25 144.125 C 159.671875 139.566406 160.882812 134.175781 160.882812 127.949219 C 160.882812 120.222656 159.007812 113.621094 155.261719 108.140625 C 151.511719 102.664062 145.832031 98.828125 138.222656 96.636719 C 143.757812 93.984375 147.9375 90.582031 150.765625 86.429688 C 153.589844 82.277344 155 77.089844 155 70.859375 C 155 65.09375 154.050781 60.25 152.148438 56.332031 C 150.246094 52.410156 147.5625 49.265625 144.101562 46.902344 C 140.644531 44.539062 136.492188 42.835938 131.648438 41.800781 C 126.804688 40.761719 121.441406 40.242188 115.558594 40.242188 Z M 84.59375 142.652344 L 84.59375 108.746094 L 114.175781 108.746094 C 120.058594 108.746094 124.785156 110.101562 128.363281 112.8125 C 131.9375 115.523438 133.722656 120.046875 133.722656 126.390625 C 133.722656 129.621094 133.175781 132.273438 132.082031 134.347656 C 130.984375 136.425781 129.515625 138.070312 127.667969 139.28125 C 125.824219 140.492188 123.691406 141.355469 121.269531 141.875 C 118.847656 142.394531 116.308594 142.652344 113.65625 142.652344 Z M 84.59375 142.652344 "/>
</g>
</svg>
